<svg width="16" height="16" viewBox="0 0 16 16" fill="none" xmlns="http://www.w3.org/2000/svg">
<path d="M2.41428 5.03563L2.41427 5.03565L2.41709 5.0384L7.76709 10.2634L8.0011 10.4919L8.23402 10.2623L13.584 4.98729L13.584 4.98729L13.5857 4.98563C13.6805 4.8908 13.8195 4.8908 13.9143 4.98563C14.0088 5.08017 14.0091 5.21858 13.9151 5.31338C13.9148 5.31366 13.9146 5.31394 13.9143 5.31422L8.16636 10.9622L8.16635 10.9622L8.16428 10.9642C8.06797 11.0605 8.02311 11.0666 7.99999 11.0666C7.94106 11.0666 7.89002 11.0522 7.82024 10.999L2.08486 5.36339C1.99086 5.26859 1.99114 5.13018 2.08569 5.03563C2.18051 4.9408 2.31946 4.9408 2.41428 5.03563Z" fill="#445275" stroke="#445275" stroke-width="0.666667"/>
</svg>
