<svg id="eye" width="16" height="16" viewBox="0 0 16 16" fill="none" xmlns="http://www.w3.org/2000/svg">
<path d="M2.65327 5.48171C2.03786 6.20922 1.56826 7.064 1.28955 8.00099C2.15042 10.892 4.82872 13 7.99938 13C8.66109 13 9.30136 12.9082 9.90815 12.7366M4.15173 4.15175C5.2559 3.42372 6.57845 3 7.99997 3C11.1706 3 13.8489 5.10803 14.7098 7.99901C14.2352 9.59458 13.207 10.9518 11.848 11.848M4.15173 4.15175L1.99998 2M4.15173 4.15175L6.58577 6.58579M11.848 11.848L14 14M11.848 11.848L9.41419 9.41421M9.41419 9.41421C9.77612 9.05228 9.99998 8.55228 9.99998 8C9.99998 6.89543 9.10455 6 7.99998 6C7.4477 6 6.9477 6.22386 6.58577 6.58579M9.41419 9.41421L6.58577 6.58579" stroke="currentColor" stroke-linecap="round" stroke-linejoin="round"/>
</svg>
