<svg width="16" height="16" viewBox="0 0 16 16" fill="none" xmlns="http://www.w3.org/2000/svg">
<path d="M1.35708 8.21493C1.31103 8.07676 1.31098 7.92716 1.35696 7.78895C2.28253 5.00648 4.90724 3 8.00059 3C11.0925 3 13.7162 5.00462 14.6429 7.78507C14.689 7.92325 14.689 8.07285 14.6431 8.21105C13.7175 10.9935 11.0928 13 7.99942 13C4.90751 13 2.28381 10.9954 1.35708 8.21493Z" stroke="currentColor" stroke-linecap="round" stroke-linejoin="round"/>
<path d="M10 8C10 9.10457 9.10462 10 8.00005 10C6.89548 10 6.00005 9.10457 6.00005 8C6.00005 6.89543 6.89548 6 8.00005 6C9.10462 6 10 6.89543 10 8Z" stroke="currentColor" stroke-linecap="round" stroke-linejoin="round"/>
</svg>
